<svg xmlns="http://www.w3.org/2000/svg" xmlns:xlink="http://www.w3.org/1999/xlink" width="1250" height="300" viewBox="0 0 1250 300"><defs><clipPath id="b"><rect width="1250" height="300"/></clipPath></defs><g id="a" clip-path="url(#b)"><g transform="translate(-50 -49.745)"><g transform="translate(50 49.745)"><g fill="#1a202c"><path d="M 150.2549438476562 299.5 C 140.0938720703125 299.5 129.9393310546875 298.4780883789062 120.0734024047852 296.462646484375 C 110.4584808349609 294.4985046386719 101.0009078979492 291.5676879882812 91.96344757080078 287.7516479492188 C 83.08994293212891 284.0048522949219 74.53140258789062 279.3672790527344 66.52555847167969 273.9678344726562 C 58.59567642211914 268.6195678710938 51.13875198364258 262.4775085449219 44.36190414428711 255.712158203125 C 37.58509826660156 248.9468536376953 31.43259811401367 241.5026092529297 26.07529067993164 233.5861968994141 C 20.66671371459961 225.5940399169922 16.02132797241211 217.0500793457031 12.26817417144775 208.1917266845703 C 8.445713043212891 199.1696929931641 5.509943962097168 189.7283020019531 3.542482376098633 180.1298522949219 C 1.523636102676392 170.2808074951172 0.5000207424163818 160.1436462402344 0.5000207424163818 150 C 0.5000207424163818 139.8563537597656 1.523636102676392 129.7191925048828 3.542482376098633 119.8701934814453 C 5.509943962097168 110.2716903686523 8.445713043212891 100.8303070068359 12.26817417144775 91.80831146240234 C 16.02132797241211 82.94992065429688 20.66671371459961 74.40599822998047 26.07529067993164 66.41381072998047 C 31.43259811401367 58.49742126464844 37.58509826660156 51.05315399169922 44.36190414428711 44.28784561157227 C 51.13875198364258 37.52249908447266 58.59567642211914 31.38042259216309 66.52555847167969 26.03219223022461 C 74.53140258789062 20.63273048400879 83.08994293212891 15.995192527771 91.96344757080078 12.24838447570801 C 101.0009078979492 8.432307243347168 110.4584808349609 5.501500129699707 120.0734024047852 3.537346124649048 C 129.9393615722656 1.521923065185547 140.0938720703125 0.5 150.2549438476562 0.5 C 160.416015625 0.5 170.570556640625 1.521923065185547 180.4364776611328 3.537346124649048 C 190.0514373779297 5.501500129699707 199.5089874267578 8.432307243347168 208.5464782714844 12.24838447570801 C 217.4199829101562 15.995192527771 225.978515625 20.63273048400879 233.9843597412109 26.03219223022461 C 241.9142456054688 31.38042259216309 249.3711700439453 37.52249908447266 256.1479797363281 44.28784561157227 C 262.9248352050781 51.05315399169922 269.0773315429688 58.49742126464844 274.4346313476562 66.41381072998047 C 279.8432006835938 74.40599822998047 284.4885864257812 82.94992065429688 288.2417602539062 91.80831146240234 C 292.064208984375 100.8303070068359 294.9999694824219 110.2716903686523 296.9674377441406 119.8701934814453 C 298.9862976074219 129.7191925048828 300.0099182128906 139.8563537597656 300.0099182128906 150 C 300.0099182128906 160.1436462402344 298.9862976074219 170.2808074951172 296.9674377441406 180.1298522949219 C 294.9999694824219 189.7283020019531 292.064208984375 199.1696929931641 288.2417602539062 208.1917266845703 C 284.4885864257812 217.0500793457031 279.8432006835938 225.5940399169922 274.4346313476562 233.5861968994141 C 269.0773315429688 241.5026092529297 262.9248352050781 248.9468536376953 256.1479797363281 255.712158203125 C 249.3711700439453 262.4775085449219 241.9142456054688 268.6195678710938 233.9843597412109 273.9678344726562 C 225.978515625 279.3672790527344 217.4199829101562 284.0048522949219 208.5464782714844 287.7516479492188 C 199.5089874267578 291.5676879882812 190.0514373779297 294.4985046386719 180.4364776611328 296.462646484375 C 170.570556640625 298.4780883789062 160.416015625 299.5 150.2549438476562 299.5 Z" stroke="none"/><path d="M 150.2549438476562 1 C 140.1274108886719 1 130.0065612792969 2.01849365234375 120.1734771728516 4.0272216796875 C 110.5908355712891 5.98480224609375 101.1650238037109 8.90576171875 92.15789794921875 12.70901489257812 C 83.31413269042969 16.4432373046875 74.78421020507812 21.06527709960938 66.80509948730469 26.44668579101562 C 58.90159606933594 31.77716064453125 51.46943664550781 37.8988037109375 44.71513366699219 44.64169311523438 C 37.96087646484375 51.38450622558594 31.82882690429688 58.80400085449219 26.4893798828125 66.69404602050781 C 21.098876953125 74.65945434570312 16.46905517578125 83.17472839355469 12.728515625 92.00334167480469 C 8.9189453125 100.9949188232422 5.99310302734375 110.4044647216797 4.032257080078125 119.9705810546875 C 2.020172119140625 129.7866516113281 0.999969482421875 139.8899993896484 0.999969482421875 150 C 0.999969482421875 160.1100006103516 2.020172119140625 170.2133483886719 4.032257080078125 180.0294189453125 C 5.99310302734375 189.5955352783203 8.9189453125 199.0050659179688 12.728515625 207.9966430664062 C 16.46905517578125 216.8252716064453 21.098876953125 225.3405456542969 26.4893798828125 233.3059692382812 C 31.82882690429688 241.1959991455078 37.96087646484375 248.6154632568359 44.71513366699219 255.3583068847656 C 51.46943664550781 262.1011657714844 58.90159606933594 268.2228393554688 66.80509948730469 273.5532836914062 C 74.78421020507812 278.9346923828125 83.31413269042969 283.5567321777344 92.15789794921875 287.291015625 C 101.1650238037109 291.09423828125 110.5908355712891 294.0151977539062 120.1734771728516 295.9727783203125 C 130.0065612792969 297.9815063476562 140.1274108886719 299 150.2549438476562 299 C 160.3824768066406 299 170.5033264160156 297.9815063476562 180.3363952636719 295.9727783203125 C 189.9190673828125 294.0151977539062 199.3448181152344 291.09423828125 208.3519439697266 287.291015625 C 217.1957550048828 283.5567321777344 225.7256469726562 278.9346923828125 233.7047424316406 273.5532836914062 C 241.6082458496094 268.2228393554688 249.0404052734375 262.1011657714844 255.7947082519531 255.3583068847656 C 262.5489807128906 248.6154632568359 268.6810607910156 241.1959991455078 274.0205078125 233.3059692382812 C 279.4109802246094 225.3405456542969 284.0408020019531 216.8252716064453 287.7813415527344 207.9966430664062 C 291.5909118652344 199.0050659179688 294.5167541503906 189.5955352783203 296.4776000976562 180.0294189453125 C 298.4896850585938 170.2133483886719 299.5098571777344 160.1100006103516 299.5098571777344 150 C 299.5098571777344 139.8899993896484 298.4896850585938 129.7866516113281 296.4776000976562 119.9705810546875 C 294.5167541503906 110.4044647216797 291.5909118652344 100.9949188232422 287.7813415527344 92.00334167480469 C 284.0408020019531 83.17472839355469 279.4109802246094 74.65945434570312 274.0205078125 66.69404602050781 C 268.6810607910156 58.80400085449219 262.5489807128906 51.38450622558594 255.7947082519531 44.64169311523438 C 249.0404052734375 37.8988037109375 241.6082458496094 31.77716064453125 233.7047424316406 26.44668579101562 C 225.7256469726562 21.06527709960938 217.1957550048828 16.4432373046875 208.3519439697266 12.70901489257812 C 199.3448181152344 8.90576171875 189.9190673828125 5.98480224609375 180.3363952636719 4.0272216796875 C 170.5033264160156 2.01849365234375 160.3824768066406 1 150.2549438476562 1 M 150.2549438476562 0 C 233.2384338378906 0 300.5098571777344 67.15727233886719 300.5098571777344 150 C 300.5098571777344 232.8426818847656 233.2384338378906 300 150.2549438476562 300 C 67.27140808105469 300 -3.0517578125e-05 232.8426818847656 -3.0517578125e-05 150 C -3.0517578125e-05 67.15727233886719 67.27140808105469 0 150.2549438476562 0 Z" stroke="none" fill="#707070"/></g><path d="M3.3-114.421a31.715,31.715,0,0,1,1.071-6.906,19.228,19.228,0,0,1,2.891-6.906q4.6-6.531,8.459-11.992t6.852-9.422a77.465,77.465,0,0,1,6-7.067q18.309-19.808,26.232-29.6t7.923-13.651a4.489,4.489,0,0,0-2.356-4.015,11.761,11.761,0,0,0-6.21-1.445q-7.923,0-19.915,5.621t-28,14.615Q-9.762-176.2-11.582-176.2q-2.891,0-2.891-4.176,0-3.533,2.248-10.065,1.713-7.067,2.784-10.975a18.98,18.98,0,0,1,3.587-7.013A34.1,34.1,0,0,1,2.5-215.174q5.835-3.64,17.934-9.958L21.5-221.17a134.751,134.751,0,0,1,19-6.21,67.217,67.217,0,0,1,15.257-2.141q12.42,0,17.613,4.229t5.193,18.363a32.128,32.128,0,0,1-2.248,12.848q-2.248,5.139-8.78,14.347-14.883,21.628-22.378,29.98Q23.43-124.914,23.43-120.738q0,2.356,3.105,2.356,2.57,0,7.281-3.64a112.338,112.338,0,0,0,11.349-10.493q6.638-6.852,18.416-19.594Q76.109-165.6,84.728-175.933T98.914-193.6q5.568-7.334,5.889-7.87a67.323,67.323,0,0,1,11.938-11.617q6.157-4.55,7.87-4.551,1.285,0,3,2.356a24.061,24.061,0,0,1,2.944,5.568,15.156,15.156,0,0,1,1.231,4.925q0,.535-2.57,5.193t-5.568,9.636q-3,4.979-9.636,15.257a424.9,424.9,0,0,0-22.271,37.956q-7.709,15.365-7.709,20.183a4.769,4.769,0,0,0,1.231,3.159,3.409,3.409,0,0,0,2.516,1.445q1.713,0,6.21-2.73a61.986,61.986,0,0,0,9.958-7.87,142.8,142.8,0,0,0,13.063-14.24,189.363,189.363,0,0,0,11.671-16.489q5.782-9.1,10.279-17.238t9.1-17.131l-1.82-5.461a10.708,10.708,0,0,1-.428-3.319q0-1.606,6.317-10.439t8.351-8.833q2.248,0,3.8,3.266a15.206,15.206,0,0,1,1.553,6.585q0,3.64-3.266,14.508A224.616,224.616,0,0,1,152.4-165.065a244.329,244.329,0,0,1-17.078,31.372,133.522,133.522,0,0,1-18.791,23.823q-10.011,9.9-18.041,14.722T86.6-90.33q-4.39,0-9.208-3.855a27.961,27.961,0,0,1-5.621-6.157,16.578,16.578,0,0,1-2.195-5.942,46.119,46.119,0,0,1-.535-7.495q0-9.1,5.032-21.307a321.491,321.491,0,0,1,14.99-30.408q-31.157,37.9-48.235,55.141t-25,17.238q-5.246,0-8.887-6.264A29.444,29.444,0,0,1,3.3-114.421Z" transform="translate(74.575 309.926)" fill="#fff"/></g><path d="M65.221-132.275q-18.783,7.143-29.1,22.09T25.8-73.545q0,9.788,1.852,13.624a22.979,22.979,0,0,1,1.852,4.365q-14.286,0-21.3-5.952T1.2-81.217q0-16.931,13.889-32.937t35.582-25.926Q72.364-150,94.057-150q3.7,0,10.582.529l2.381,162.7,55.556-161.9h33.6l2.381,161.9,55.556-161.9h18.518L199.084,48.413h-38.1L157.814-86.243,107.549,48.413h-38.1ZM298.29-98.148a20.163,20.163,0,0,1-14.815-6.085,20.163,20.163,0,0,1-6.085-14.815,20.6,20.6,0,0,1,6.085-14.947,19.947,19.947,0,0,1,14.815-6.217,20.38,20.38,0,0,1,14.947,6.217,20.38,20.38,0,0,1,6.217,14.947,19.947,19.947,0,0,1-6.217,14.815A20.6,20.6,0,0,1,298.29-98.148ZM280.3,50q-12.7,0-20.5-7.937t-7.8-23.81a91.732,91.732,0,0,1,2.116-17.2L272.1-83.862h38.1L291.147,6.085a32.742,32.742,0,0,0-1.058,8.466q0,5.291,2.513,7.54t8.333,2.249q7.672,0,14.286-6.481a37.046,37.046,0,0,0,9.524-16.8h11.111q-9.788,28.571-25.132,38.757T280.3,50Zm74.6,0q-12.7,0-21.429-4.894a32.126,32.126,0,0,1-12.963-12.7,33.677,33.677,0,0,1-4.233-16.27A27.845,27.845,0,0,1,320.38.926,25.138,25.138,0,0,1,330.3-8.466,337.668,337.668,0,0,0,348.29-45.9q7.672-18.915,14.55-40.873l39.153-5.291q1.323,33.862,4.5,73.28,1.323,15.873,1.323,23.016a39.875,39.875,0,0,1-1.058,10.053Q419.189,7.143,425.8,1.058h11.111a154.628,154.628,0,0,1-40.476,33.069,45.572,45.572,0,0,1-18.915,12.037A69.647,69.647,0,0,1,354.9,50Zm-8.466-20.9a23.933,23.933,0,0,0,16.4-5.82q6.614-5.82,6.614-18.783a215,215,0,0,0-1.587-22.222q-2.646-30.159-3.439-40.476Q358.078-37.3,343-8.2q6.085,3.175,6.085,9.259a13.671,13.671,0,0,1-3.307,8.995,10.4,10.4,0,0,1-8.333,3.968q-5.556,0-7.143-3.439,0,9.524,3.836,14.021T346.438,29.1ZM451.994,50q-12.7,0-20.5-7.937t-7.8-23.81a91.731,91.731,0,0,1,2.116-17.2L441.676-73.28h-8.73l2.116-10.582h8.73l7.937-36.508,39.153-5.291-8.995,41.8h15.873L495.644-73.28H479.771L462.84,6.085a32.742,32.742,0,0,0-1.058,8.466q0,5.291,2.513,7.54t8.333,2.249q7.672,0,14.286-6.481a37.046,37.046,0,0,0,9.524-16.8h11.111q-9.788,28.571-25.132,38.757T451.994,50Zm82.275,0q-19.577,0-30.423-10.185T493,7.937q0-18.254,7.143-40.212a93.334,93.334,0,0,1,23.28-37.963q16.138-16.005,41.005-16.005,29.1,0,29.1,25.4A47.405,47.405,0,0,1,585.062-33.6a62.454,62.454,0,0,1-22.487,19.974,72.613,72.613,0,0,1-29.894,8.6q-.529,7.937-.529,10.582,0,12.963,4.5,17.593t14.55,4.63q14.286,0,24.471-6.614T598.025,1.058h8.995Q577.655,50,534.269,50Zm.529-67.725A34.873,34.873,0,0,0,553.449-24.6a48.445,48.445,0,0,0,14.286-16.138,41.963,41.963,0,0,0,5.423-20.635q0-10.847-6.614-10.847-9.524,0-18.651,16.667A126.937,126.937,0,0,0,534.8-17.725Zm81.217-66.138h38.1l-3.439,16.4a106.034,106.034,0,0,1,16.27-12.169,30.764,30.764,0,0,1,15.741-4.233q8.466,0,13.36,5.82a21.067,21.067,0,0,1,4.894,14.021,20.019,20.019,0,0,1-5.026,13.492q-5.027,5.82-14.021,5.82-5.82,0-7.8-2.778a21.142,21.142,0,0,1-3.042-8.069,24.288,24.288,0,0,0-1.587-5.026,2.956,2.956,0,0,0-2.91-1.587,18.284,18.284,0,0,0-9.391,2.249,64.564,64.564,0,0,0-9.921,7.8L626.068,48.413h-38.1ZM741.676-98.148a20.163,20.163,0,0,1-14.815-6.085,20.162,20.162,0,0,1-6.085-14.815,20.6,20.6,0,0,1,6.085-14.947,19.947,19.947,0,0,1,14.815-6.217,20.38,20.38,0,0,1,14.947,6.217,20.379,20.379,0,0,1,6.217,14.947,19.947,19.947,0,0,1-6.217,14.815A20.6,20.6,0,0,1,741.676-98.148ZM723.687,50q-12.7,0-20.5-7.937t-7.8-23.81a91.735,91.735,0,0,1,2.116-17.2l17.989-84.921h38.1L734.533,6.085a32.744,32.744,0,0,0-1.058,8.466q0,5.291,2.513,7.54t8.333,2.249q7.672,0,14.286-6.481a37.047,37.047,0,0,0,9.524-16.8h11.111Q769.454,29.63,754.11,39.815T723.687,50Zm76.19,0Q784.8,50,774.745,39.683T764.692,7.407q0-19.577,7.8-41.138a94.738,94.738,0,0,1,23.281-36.508,51.282,51.282,0,0,1,36.9-14.947q10.847,0,16.138,3.7a11.417,11.417,0,0,1,5.291,9.788v1.852l2.91-14.021h38.1L876.068,6.085a32.744,32.744,0,0,0-1.058,8.466q0,5.291,2.513,7.54t8.333,2.249a13.2,13.2,0,0,0,5.82-1.058q-5.82,14.815-11.111,20.767T865.221,50q-10.847,0-17.593-6.481T839.3,25.4Q823.158,50,799.877,50Zm17.2-25.661q6.614,0,13.1-6.217t8.862-17.063l12.7-59.788a10.735,10.735,0,0,0-2.646-6.746q-2.645-3.307-8.2-3.307-10.582,0-19.048,12.3t-13.227,29.63Q803.846-9.524,803.846,3.7t3.836,16.931A13.009,13.009,0,0,0,817.073,24.339Z" transform="translate(404.885 250)" fill="#1a202c"/></g></g></svg>