<svg xmlns="http://www.w3.org/2000/svg" width="336.329" height="319.512" viewBox="0 0 336.329 319.512"><path d="M271.063,287.88A33.633,33.633,0,1,1,304.7,254.247a33.624,33.624,0,0,1-33.633,33.633m0-100.9a67.266,67.266,0,1,0,67.266,67.266,67.266,67.266,0,0,0-67.266-67.266m-100.9-31.951a31.951,31.951,0,1,0,31.951,31.951,31.951,31.951,0,0,0-31.951-31.951M69.266,287.88A33.633,33.633,0,1,1,102.9,254.247,33.624,33.624,0,0,1,69.266,287.88m0-100.9a67.266,67.266,0,1,0,67.266,67.266,67.266,67.266,0,0,0-67.266-67.266m100.9-151.348a33.633,33.633,0,1,1-33.633,33.633,33.633,33.633,0,0,1,33.633-33.633m0,100.9A67.266,67.266,0,1,0,102.9,69.266a67.266,67.266,0,0,0,67.266,67.266Z" transform="translate(-2 -2)" fill="#9561e2"/></svg>