<svg xmlns="http://www.w3.org/2000/svg" xmlns:xlink="http://www.w3.org/1999/xlink" width="500" height="500" viewBox="0 0 500 500"><defs><clipPath id="b"><rect width="500" height="500"/></clipPath></defs><g id="a" clip-path="url(#b)"><rect width="500" height="500" fill="#fff"/><g fill="#1a202c"><path d="M 250 499.5 C 233.0714416503906 499.5 216.1536254882812 497.7945556640625 199.7165069580078 494.4310607910156 C 183.6974334716797 491.153076171875 167.9405059814453 486.2618103027344 152.8834991455078 479.8932495117188 C 138.0996856689453 473.6402587890625 123.840690612793 465.9006958007812 110.5025024414062 456.8896179199219 C 97.29093933105469 447.9640502929688 84.86737823486328 437.713623046875 73.57687377929688 426.4231262207031 C 62.28637313842773 415.1326293945312 52.03593826293945 402.7090759277344 43.11037445068359 389.4974975585938 C 34.09931182861328 376.1593017578125 26.35975074768066 361.9002990722656 20.10675048828125 347.1164855957031 C 13.73818778991699 332.0595092773438 8.84693717956543 316.3025512695312 5.568937301635742 300.2835083007812 C 2.205437421798706 283.8463745117188 0.5 266.9285583496094 0.5 250 C 0.5 233.0714416503906 2.205437421798706 216.1536254882812 5.568937301635742 199.7165069580078 C 8.84693717956543 183.6974334716797 13.73818778991699 167.9405059814453 20.10675048828125 152.8834991455078 C 26.35975074768066 138.0996856689453 34.09931182861328 123.840690612793 43.11037445068359 110.5025024414062 C 52.03593826293945 97.29093933105469 62.28637313842773 84.86737823486328 73.57687377929688 73.57687377929688 C 84.86737823486328 62.28637313842773 97.29093933105469 52.03593826293945 110.5025024414062 43.11037445068359 C 123.840690612793 34.09931182861328 138.0996856689453 26.35975074768066 152.8834991455078 20.10675048828125 C 167.9405059814453 13.73818778991699 183.6974334716797 8.84693717956543 199.7165069580078 5.568937301635742 C 216.1536254882812 2.205437421798706 233.0714416503906 0.5 250 0.5 C 266.9285583496094 0.5 283.8463745117188 2.205437421798706 300.2835083007812 5.568937301635742 C 316.3025512695312 8.84693717956543 332.0595092773438 13.73818778991699 347.1164855957031 20.10675048828125 C 361.9002990722656 26.35975074768066 376.1593017578125 34.09931182861328 389.4974975585938 43.11037445068359 C 402.7090759277344 52.03593826293945 415.1326293945312 62.28637313842773 426.4231262207031 73.57687377929688 C 437.713623046875 84.86737823486328 447.9640502929688 97.29093933105469 456.8896179199219 110.5025024414062 C 465.9006958007812 123.840690612793 473.6402587890625 138.0996856689453 479.8932495117188 152.8834991455078 C 486.2618103027344 167.9405059814453 491.153076171875 183.6974334716797 494.4310607910156 199.7165069580078 C 497.7945556640625 216.1536254882812 499.5 233.0714416503906 499.5 250 C 499.5 266.9285583496094 497.7945556640625 283.8463745117188 494.4310607910156 300.2835083007812 C 491.153076171875 316.3025512695312 486.2618103027344 332.0595092773438 479.8932495117188 347.1164855957031 C 473.6402587890625 361.9002990722656 465.9006958007812 376.1593017578125 456.8896179199219 389.4974975585938 C 447.9640502929688 402.7090759277344 437.713623046875 415.1326293945312 426.4231262207031 426.4231262207031 C 415.1326293945312 437.713623046875 402.7090759277344 447.9640502929688 389.4974975585938 456.8896179199219 C 376.1593017578125 465.9006958007812 361.9002990722656 473.6402587890625 347.1164855957031 479.8932495117188 C 332.0595092773438 486.2618103027344 316.3025512695312 491.153076171875 300.2835083007812 494.4310607910156 C 283.8463745117188 497.7945556640625 266.9285583496094 499.5 250 499.5 Z" stroke="none"/><path d="M 250 1 C 233.1050109863281 1 216.220947265625 2.701995849609375 199.8167419433594 6.058807373046875 C 183.8299865722656 9.3302001953125 168.1048889160156 14.21148681640625 153.0782470703125 20.5672607421875 C 138.3241882324219 26.80767822265625 124.0938110351562 34.53167724609375 110.7824401855469 43.52468872070312 C 97.59725952148438 52.43243408203125 85.19842529296875 62.66238403320312 73.93045043945312 73.93045043945312 C 62.66238403320312 85.19842529296875 52.43243408203125 97.59725952148438 43.52468872070312 110.7824401855469 C 34.53167724609375 124.0938110351562 26.80767822265625 138.3241882324219 20.5672607421875 153.0782470703125 C 14.21148681640625 168.1048889160156 9.3302001953125 183.8299865722656 6.058807373046875 199.8167419433594 C 2.701995849609375 216.220947265625 1 233.1050109863281 1 250 C 1 266.89501953125 2.701995849609375 283.779052734375 6.058807373046875 300.1832275390625 C 9.3302001953125 316.1699829101562 14.21148681640625 331.8951416015625 20.5672607421875 346.9217529296875 C 26.80767822265625 361.6758117675781 34.53167724609375 375.9061889648438 43.52468872070312 389.2175598144531 C 52.43243408203125 402.4027404785156 62.66238403320312 414.8015747070312 73.93045043945312 426.069580078125 C 85.19842529296875 437.3376159667969 97.59725952148438 447.5675659179688 110.7824401855469 456.4753112792969 C 124.0938110351562 465.4683227539062 138.3241882324219 473.1923217773438 153.0782470703125 479.4327392578125 C 168.1048889160156 485.7885131835938 183.8299865722656 490.6697998046875 199.8167419433594 493.9411926269531 C 216.220947265625 497.2980041503906 233.1050109863281 499 250 499 C 266.89501953125 499 283.779052734375 497.2980041503906 300.1832275390625 493.9411926269531 C 316.1699829101562 490.6697998046875 331.8951416015625 485.7885131835938 346.9217529296875 479.4327392578125 C 361.6758117675781 473.1923217773438 375.9061889648438 465.4683227539062 389.2175598144531 456.4753112792969 C 402.4027404785156 447.5675659179688 414.8015747070312 437.3376159667969 426.069580078125 426.069580078125 C 437.3376159667969 414.8015747070312 447.5675659179688 402.4027404785156 456.4753112792969 389.2175598144531 C 465.4683227539062 375.9061889648438 473.1923217773438 361.6758117675781 479.4327392578125 346.9217529296875 C 485.7885131835938 331.8951416015625 490.6697998046875 316.1699829101562 493.9411926269531 300.1832275390625 C 497.2980041503906 283.779052734375 499 266.89501953125 499 250 C 499 233.1050109863281 497.2980041503906 216.220947265625 493.9411926269531 199.8167419433594 C 490.6697998046875 183.8299865722656 485.7885131835938 168.1048889160156 479.4327392578125 153.0782470703125 C 473.1923217773438 138.3241882324219 465.4683227539062 124.0938110351562 456.4753112792969 110.7824401855469 C 447.5675659179688 97.59725952148438 437.3376159667969 85.19842529296875 426.069580078125 73.93045043945312 C 414.8015747070312 62.66238403320312 402.4027404785156 52.43243408203125 389.2175598144531 43.52468872070312 C 375.9061889648438 34.53167724609375 361.6758117675781 26.80767822265625 346.9217529296875 20.5672607421875 C 331.8951416015625 14.21148681640625 316.1699829101562 9.3302001953125 300.1832275390625 6.058807373046875 C 283.779052734375 2.701995849609375 266.89501953125 1 250 1 M 250 0 C 388.0711975097656 0 500 111.9288024902344 500 250 C 500 388.0711975097656 388.0711975097656 500 250 500 C 111.9288024902344 500 0 388.0711975097656 0 250 C 0 111.9288024902344 111.9288024902344 0 250 0 Z" stroke="none" fill="#707070"/></g><path d="M15.1-38.013A52.769,52.769,0,0,1,16.881-49.5q1.781-7.393,4.81-11.49,7.66-10.867,14.074-19.952t11.4-15.677a128.891,128.891,0,0,1,9.976-11.758q30.463-32.957,43.646-49.258t13.183-22.714a7.47,7.47,0,0,0-3.919-6.681q-3.919-2.4-10.333-2.4-13.183,0-33.135,9.353T20-155.769Q-6.634-140.8-9.663-140.8q-4.81,0-4.81-6.948,0-5.879,3.741-16.746,2.85-11.758,4.632-18.26A31.58,31.58,0,0,1-.132-194.426q4.186-5.166,13.9-11.223T43.6-222.217l1.781,6.591a224.206,224.206,0,0,1,31.621-10.333q14.875-3.563,25.386-3.563,20.665,0,29.305,7.037t8.64,30.552q0,12.827-3.741,21.378t-14.608,23.872Q97.226-110.7,84.755-96.8,48.591-55.472,48.591-48.524q0,3.919,5.166,3.919,4.276,0,12.114-6.057A186.913,186.913,0,0,0,84.755-68.12q11.045-11.4,30.641-32.6,20.843-22.447,35.184-39.638t23.6-29.394q9.264-12.2,9.8-13.094a112.017,112.017,0,0,1,19.863-19.329q10.243-7.571,13.094-7.571,2.138,0,4.988,3.919a40.036,40.036,0,0,1,4.9,9.264,25.217,25.217,0,0,1,2.049,8.195q0,.891-4.276,8.64T215.337-163.7q-4.988,8.284-16.033,25.386-24.228,37.589-37.055,63.153T149.423-41.576a7.936,7.936,0,0,0,2.049,5.255q2.049,2.4,4.186,2.4,2.85,0,10.333-4.543a103.135,103.135,0,0,0,16.568-13.094,237.608,237.608,0,0,0,21.734-23.694,315.071,315.071,0,0,0,19.418-27.435q9.62-15.143,17.1-28.682t15.143-28.5l-3.029-9.086a17.816,17.816,0,0,1-.713-5.523q0-2.672,10.511-17.369t13.9-14.7q3.741,0,6.324,5.433a25.3,25.3,0,0,1,2.583,10.956q0,6.057-5.434,24.139T263.17-122.277a406.523,406.523,0,0,1-28.415,52.2,222.16,222.16,0,0,1-31.265,39.638q-16.657,16.479-30.018,24.5T153.7,2.07q-7.3,0-15.321-6.413-6.591-5.7-9.353-10.243a27.583,27.583,0,0,1-3.652-9.887,76.734,76.734,0,0,1-.891-12.47q0-15.143,8.373-35.451T157.8-122.989Q105.955-59.925,77.54-31.244T35.943-2.562q-8.729,0-14.786-10.422T15.1-38.013Z" transform="translate(114.473 363.726)" fill="#fff"/></g></svg>